# File created by Blade
# Date/Time:  Thu Jan 22 18:06:27 2015
# Frame Rate: 120.000 fps
#------------------------------------------------------
:FULLY-SPECIFIED
:DEGREES
2175
root -0.504404 33.030238 -2.031829 6.339540 -19.285611 -1.593695
RightUpLeg -23.329248 -24.020315 1.108491
RightLeg 72.608584 -0.000000 -0.000000
RightFoot 1.601885 -12.185175 4.657801
RightToeBase -2.697271 -0.000000 0.000000
LeftUpLeg -1.599612 7.017682 -7.851211
LeftLeg 4.175282 -0.000000 -0.000000
LeftFoot -15.951037 15.192902 -3.717363
LeftToeBase 7.790483 -0.000000 -0.000000
Spine -7.326785 0.314405 -2.755389
RightShoulder -16.575391 -15.120612 -20.296887
RightArm 29.210179 18.345234 54.318220
RightForeArm -3.911322 0.000000 25.834680
RightHand 11.998553 0.000000 -0.099757
RightHandThumb1 -24.326973 -0.000000 -32.862282
LeftShoulder -23.703973 9.568498 25.710746
LeftArm -7.099126 -47.865654 -41.697276
LeftForeArm 11.436800 0.000000 69.720533
LeftHand -5.192518 -0.000000 34.935532
LeftHandThumb1 -26.253704 0.000000 33.147579
Head 17.885403 -14.111995 -7.101785
2176
root -0.507801 33.030510 -2.032471 6.342672 -19.241788 -1.583593
RightUpLeg -23.298941 -24.035431 1.131511
RightLeg 72.594858 -0.000000 -0.000000
RightFoot 1.593297 -12.170967 4.636718
RightToeBase -2.649088 -0.000000 0.000000
LeftUpLeg -1.606367 7.017915 -7.852701
LeftLeg 4.176303 -0.000000 -0.000000
LeftFoot -15.945413 15.157324 -3.731431
LeftToeBase 7.755833 -0.000000 -0.000000
Spine -7.331126 0.308680 -2.789049
RightShoulder -16.592881 -15.127698 -20.266884
RightArm 29.196002 18.305565 54.275817
RightForeArm -3.877002 -0.000000 25.832082
RightHand 12.026177 0.000000 -0.118950
RightHandThumb1 -24.326973 -0.000000 -32.862282
LeftShoulder -23.696304 9.558929 25.722675
LeftArm -7.079867 -47.888253 -41.704136
LeftForeArm 11.376805 -0.000000 69.692541
LeftHand -5.174994 0.000000 35.170462
LeftHandThumb1 -26.253704 0.000000 33.147579
Head 17.907943 -13.980003 -6.965900
2177
root -0.511564 33.030646 -2.033084 6.343456 -19.199845 -1.578066
RightUpLeg -23.264348 -24.036026 1.154945
RightLeg 72.580456 -0.000000 -0.000000
RightFoot 1.596725 -12.165871 4.631988
RightToeBase -2.600261 -0.000000 0.000000
LeftUpLeg -1.604378 7.018168 -7.847810
LeftLeg 4.167901 -0.000000 -0.000000
LeftFoot -15.934620 15.137910 -3.683654
LeftToeBase 7.712814 -0.000000 -0.000000
Spine -7.332944 0.307586 -2.822300
RightShoulder -16.632397 -15.199786 -20.212779
RightArm 29.287636 18.343966 54.296600
RightForeArm -3.890990 0.000000 25.788622
RightHand 12.077550 -0.000000 -0.121975
RightHandThumb1 -24.326973 -0.000000 -32.862282
LeftShoulder -23.669505 9.536833 25.751731
LeftArm -7.116464 -47.898668 -41.681281
LeftForeArm 11.251002 -0.000000 69.690257
LeftHand -5.128259 -0.000000 35.309573
LeftHandThumb1 -26.253704 0.000000 33.147579
Head 17.925751 -13.860259 -6.815572
2178
root -0.514211 33.030400 -2.034267 6.345132 -19.154536 -1.561418
RightUpLeg -23.239005 -24.054183 1.169981
RightLeg 72.572799 -0.000000 -0.000000
RightFoot 1.597253 -12.162796 4.614778
RightToeBase -2.661625 -0.000000 0.000000
LeftUpLeg -1.610666 7.018189 -7.850902
LeftLeg 4.158884 -0.000000 -0.000000
LeftFoot -15.920972 15.104996 -3.670980
LeftToeBase 7.755725 -0.000000 -0.000000
Spine -7.336531 0.292235 -2.861720
RightShoulder -16.640155 -15.192071 -20.196593
RightArm 29.271924 18.341022 54.293627
RightForeArm -3.892156 -0.000000 25.795165
RightHand 12.049136 0.000000 -0.157261
RightHandThumb1 -24.326973 -0.000000 -32.862282
LeftShoulder -23.658050 9.506512 25.781143
LeftArm -7.138571 -47.890490 -41.668256
LeftForeArm 11.179671 0.000000 69.678565
LeftHand -5.133799 0.000000 35.473764
LeftHandThumb1 -26.253704 0.000000 33.147579
Head 17.939663 -13.750439 -6.677962
2179
root -0.517843 33.030541 -2.035191 6.338059 -19.104759 -1.553532
RightUpLeg -23.196848 -24.069527 1.188869
RightLeg 72.561055 -0.000000 -0.000000
RightFoot 1.606606 -12.149467 4.617732
RightToeBase -2.727143 -0.000000 0.000000
LeftUpLeg -1.607743 7.016964 -7.845145
LeftLeg 4.162676 -0.000000 -0.000000
LeftFoot -15.913937 15.064600 -3.662003
LeftToeBase 7.804078 -0.000000 -0.000000
Spine -7.330660 0.266278 -2.889727
RightShoulder -16.623156 -15.202005 -20.188595
RightArm 29.254721 18.363655 54.308690
RightForeArm -3.902846 -0.000000 25.807536
RightHand 12.037865 0.000000 -0.205068
RightHandThumb1 -24.326973 -0.000000 -32.862282
LeftShoulder -23.656183 9.534106 25.793657
LeftArm -7.105792 -47.927530 -41.716414
LeftForeArm 11.155933 -0.000000 69.675718
LeftHand -5.154433 -0.000000 35.553055
LeftHandThumb1 -26.253704 0.000000 33.147579
Head 17.960277 -13.641615 -6.550766
2180
root -0.520428 33.030251 -2.036013 6.335249 -19.058891 -1.540841
RightUpLeg -23.160583 -24.080428 1.204392
RightLeg 72.551784 -0.000000 -0.000000
RightFoot 1.603283 -12.138702 4.650147
RightToeBase -2.703649 -0.000000 0.000000
LeftUpLeg -1.607306 6.994040 -7.847251
LeftLeg 4.169233 -0.000000 -0.000000
LeftFoot -15.916889 15.017732 -3.698643
LeftToeBase 7.729828 -0.000000 -0.000000
Spine -7.328299 0.248737 -2.914773
RightShoulder -16.632960 -15.215248 -20.181558
RightArm 29.258800 18.378304 54.325006
RightForeArm -3.905118 -0.000000 25.829355
RightHand 12.013085 -0.000000 -0.226902
RightHandThumb1 -24.326973 -0.000000 -32.862282
LeftShoulder -23.659301 9.521938 25.804347
LeftArm -7.090250 -47.917970 -41.731404
LeftForeArm 11.093030 -0.000000 69.657195
LeftHand -5.033791 0.000000 35.520688
LeftHandThumb1 -26.253704 0.000000 33.147579
Head 17.966520 -13.537748 -6.443624
2181
root -0.522575 33.029796 -2.037232 6.336929 -19.012474 -1.526323
RightUpLeg -23.135746 -24.096318 1.219398
RightLeg 72.553756 -0.000000 -0.000000
RightFoot 1.609441 -12.123790 4.658575
RightToeBase -2.797130 -0.000000 0.000000
LeftUpLeg -1.614468 6.949932 -7.852062
LeftLeg 4.168658 -0.000000 -0.000000
LeftFoot -15.917084 15.011826 -3.716194
LeftToeBase 7.730692 -0.000000 -0.000000
Spine -7.331657 0.228376 -2.941763
RightShoulder -16.631842 -15.218014 -20.170132
RightArm 29.241105 18.386248 54.308060
RightForeArm -3.869786 -0.000000 25.852476
RightHand 12.045677 0.000000 -0.178906
RightHandThumb1 -24.326973 -0.000000 -32.862282
LeftShoulder -23.665173 9.513545 25.823137
LeftArm -7.069352 -47.903891 -41.762922
LeftForeArm 11.023279 -0.000000 69.649686
LeftHand -4.959919 -0.000000 35.601315
LeftHandThumb1 -26.253704 0.000000 33.147579
Head 17.976457 -13.468920 -6.352752
2182
root -0.523937 33.029128 -2.038083 6.338444 -18.968510 -1.509062
RightUpLeg -23.112106 -24.100888 1.227007
RightLeg 72.563635 -0.000000 -0.000000
RightFoot 1.607440 -12.090749 4.634955
RightToeBase -2.842730 -0.000000 0.000000
LeftUpLeg -1.623250 6.929053 -7.860053
LeftLeg 4.174428 -0.000000 -0.000000
LeftFoot -15.910732 14.982645 -3.722103
LeftToeBase 7.880465 -0.000000 -0.000000
Spine -7.336867 0.211922 -2.964278
RightShoulder -16.636578 -15.213609 -20.172463
RightArm 29.226584 18.395216 54.306719
RightForeArm -3.851964 0.000000 25.881421
RightHand 12.016053 -0.000000 -0.168613
RightHandThumb1 -24.326973 -0.000000 -32.862282
LeftShoulder -23.674942 9.497252 25.829016
LeftArm -7.036317 -47.874781 -41.782545
LeftForeArm 10.961088 -0.000000 69.627465
LeftHand -4.890816 0.000000 35.715140
LeftHandThumb1 -26.253704 0.000000 33.147579
Head 17.982927 -13.415124 -6.293827
2183
root -0.526382 33.027665 -2.038916 6.316285 -18.930811 -1.492724
RightUpLeg -23.065774 -24.095848 1.227482
RightLeg 72.579914 -0.000000 -0.000000
RightFoot 1.594384 -12.075587 4.634365
RightToeBase -2.972281 -0.000000 0.000000
LeftUpLeg -1.601339 6.906049 -7.862984
LeftLeg 4.162579 -0.000000 -0.000000
LeftFoot -15.908992 14.970014 -3.710134
LeftToeBase 7.873531 -0.000000 -0.000000
Spine -7.309598 0.202318 -2.984920
RightShoulder -16.648580 -15.206379 -20.178294
RightArm 29.243713 18.413053 54.321544
RightForeArm -3.870949 0.000000 25.874710
RightHand 12.102704 0.000000 -0.117962
RightHandThumb1 -24.326973 -0.000000 -32.862282
LeftShoulder -23.679221 9.493316 25.833670
LeftArm -7.005962 -47.862660 -41.819048
LeftForeArm 10.926950 -0.000000 69.630669
LeftHand -4.914803 -0.000000 35.777707
LeftHandThumb1 -26.253704 0.000000 33.147579
Head 17.971164 -13.379171 -6.258265
2184
root -0.528243 33.026860 -2.039631 6.311685 -18.909089 -1.477195
RightUpLeg -23.045066 -24.085010 1.237690
RightLeg 72.606565 -0.000000 -0.000000
RightFoot 1.583681 -12.087972 4.605112
RightToeBase -3.102709 -0.000000 0.000000
LeftUpLeg -1.598842 6.880828 -7.870783
LeftLeg 4.157252 -0.000000 -0.000000
LeftFoot -15.906562 14.970993 -3.716384
LeftToeBase 7.701725 -0.000000 -0.000000
Spine -7.312984 0.195922 -3.002503
RightShoulder -16.643749 -15.220194 -20.178379
RightArm 29.263162 18.444241 54.329010
RightForeArm -3.914048 -0.000000 25.885165
RightHand 12.108905 -0.000000 -0.093803
RightHandThumb1 -24.326973 -0.000000 -32.862282
LeftShoulder -23.690847 9.500471 25.836429
LeftArm -6.975487 -47.840908 -41.849436
LeftForeArm 10.881379 -0.000000 69.638128
LeftHand -4.885335 -0.000000 35.751196
LeftHandThumb1 -26.253704 0.000000 33.147579
Head 17.990603 -13.355069 -6.245211
2185
root -0.528905 33.025935 -2.040032 6.308309 -18.895306 -1.460405
RightUpLeg -23.030057 -24.069702 1.241579
RightLeg 72.639268 -0.000000 -0.000000
RightFoot 1.586992 -12.084861 4.636182
RightToeBase -3.214661 -0.000000 0.000000
LeftUpLeg -1.594484 6.876717 -7.883280
LeftLeg 4.146961 -0.000000 -0.000000
LeftFoot -15.897791 14.967531 -3.715172
LeftToeBase 7.868130 -0.000000 -0.000000
Spine -7.318020 0.220666 -3.020387
RightShoulder -16.663513 -15.237654 -20.176183
RightArm 29.286124 18.476045 54.335726
RightForeArm -3.943937 0.000000 25.890033
RightHand 12.084428 -0.000000 -0.047992
RightHandThumb1 -24.326973 -0.000000 -32.862282
LeftShoulder -23.708840 9.533268 25.820619
LeftArm -6.854766 -47.831529 -41.940143
LeftForeArm 10.852612 -0.000000 69.641201
LeftHand -4.893806 -0.000000 35.741241
LeftHandThumb1 -26.253704 0.000000 33.147579
Head 18.008563 -13.372295 -6.254441
2186
root -0.528881 33.024975 -2.040025 6.308085 -18.880837 -1.444070
RightUpLeg -23.021317 -24.058202 1.242401
RightLeg 72.676518 -0.000000 -0.000000
RightFoot 1.591259 -12.045594 4.760495
RightToeBase -3.149486 -0.000000 0.000000
LeftUpLeg -1.587175 6.869513 -7.895451
LeftLeg 4.121520 -0.000000 -0.000000
LeftFoot -15.875055 14.957180 -3.715804
LeftToeBase 7.832331 -0.000000 -0.000000
Spine -7.332155 0.223168 -3.027783
RightShoulder -16.658771 -15.233587 -20.192412
RightArm 29.291445 18.499570 54.342905
RightForeArm -3.985030 -0.000000 25.902521
RightHand 12.044122 -0.000000 -0.005445
RightHandThumb1 -24.326973 -0.000000 -32.862282
LeftShoulder -23.716927 9.547623 25.803889
LeftArm -6.814100 -47.809680 -41.967057
LeftForeArm 10.831483 -0.000000 69.653918
LeftHand -4.896356 0.000000 35.777882
LeftHandThumb1 -26.253704 0.000000 33.147579
Head 18.037465 -13.384805 -6.289182
